<svg height="512pt" viewBox="-145 0 512 512" width="512pt" xmlns="http://www.w3.org/2000/svg"><path d="m197.53125 512h-173.96875c-12.992188 0-23.5625-10.570312-23.5625-23.5625v-464.875c0-12.992188 10.570312-23.5625 23.5625-23.5625h173.96875c12.992188 0 23.5625 10.570312 23.5625 23.5625v464.875c0 12.992188-10.570312 23.5625-23.5625 23.5625zm0 0" fill="#8adb53"/><path d="m197.53125 0h-87.160156v512h87.160156c12.992188 0 23.5625-10.570312 23.5625-23.5625v-464.875c0-12.992188-10.570312-23.5625-23.5625-23.5625zm0 0" fill="#1cbf66"/><path d="m162.859375 191.09375h-104.628906c-8.285157 0-15 6.714844-15 15v232.664062c0 8.285157 6.714843 15 15 15h104.632812c8.28125 0 15-6.714843 15-15v-232.664062c-.003906-8.285156-6.71875-15-15.003906-15zm0 0" fill="#00cc76"/><path d="m162.859375 191.09375h-52.488281v262.664062h52.488281c8.285156 0 15-6.714843 15-15v-232.664062c0-8.285156-6.714844-15-15-15zm0 0" fill="#33a072"/><path d="m197.53125 0h-173.96875c-12.992188 0-23.5625 10.570312-23.5625 23.5625v182.53125c0 8.285156 6.714844 15 15 15h191.09375c8.285156 0 15-6.714844 15-15v-182.53125c0-12.992188-10.570312-23.5625-23.5625-23.5625zm0 0" fill="#856c67"/><path d="m197.53125 0h-87.160156v221.09375h95.722656c8.28125 0 15-6.714844 15-15v-182.53125c0-12.992188-10.570312-23.5625-23.5625-23.5625zm0 0" fill="#736056"/></svg>