<?xml version="1.0" encoding="iso-8859-1"?>
<!-- Generator: Adobe Illustrator 19.0.0, SVG Export Plug-In . SVG Version: 6.00 Build 0)  -->
<svg version="1.1" id="Capa_1" xmlns="http://www.w3.org/2000/svg" xmlns:xlink="http://www.w3.org/1999/xlink" x="0px" y="0px"
	 viewBox="0 0 464 464" style="enable-background:new 0 0 464 464;" xml:space="preserve">
<path style="fill:#E6E6E6;" d="M112,24h336v440H112V24z"/>
<path style="fill:#0071BC;" d="M200,0h144v48H200V0z"/>
<g>
	<path style="fill:#999999;" d="M184,248h200v16H184V248z"/>
	<path style="fill:#999999;" d="M232,216h184v16H232V216z"/>
	<path style="fill:#999999;" d="M200,216h16v16h-16V216z"/>
</g>
<path style="fill:#FBB03B;" d="M328,99.056V80h-16v19.056l-24,12l-24-12V80h-16v19.056l-27.576,13.784
	c-2.712,1.355-4.425,4.128-4.424,7.16v32h-16v16h22.112L248,180.944V200h16v-19.056l24-12l24,12V200h16v-19.056l27.576-13.744
	c2.725-1.362,4.441-4.153,4.424-7.2v-32h16v-16h-22.112L328,99.056z M232,124.944l24-12l24,12v30.112l-24,12l-24-12V124.944z
	 M344,155.056l-24,12l-24-12v-30.112l24-12l24,12V155.056z"/>
<g>
	<path style="fill:#29ABE2;" d="M152,88h16v16h-16V88z"/>
	<path style="fill:#29ABE2;" d="M184,88h16v16h-16V88z"/>
	<path style="fill:#29ABE2;" d="M368,72h16v16h-16V72z"/>
	<path style="fill:#29ABE2;" d="M400,72h16v16h-16V72z"/>
</g>
<path style="fill:#F7931E;" d="M224,296h176l-16,32v136H224V296z"/>
<path style="fill:#29ABE2;" d="M152,192h-48v144l-83.84,99.088c-2.68,3.161-4.153,7.168-4.16,11.312c0,9.72,7.88,17.6,17.6,17.6
	c0,0,0,0,0,0h188.8c9.72,0,17.6-7.88,17.6-17.6l0,0c0.001-4.155-1.473-8.175-4.16-11.344L152,336L152,192z"/>
<g>
	<path style="fill:#0071BC;" d="M192.616,384H63.384l-43.2,51.088c-6.248,7.447-5.275,18.548,2.171,24.795
		c3.152,2.644,7.131,4.101,11.245,4.117h188.8c9.72-0.042,17.566-7.955,17.525-17.675c-0.018-4.112-1.474-8.087-4.117-11.237
		L192.616,384z"/>
	<path style="fill:#0071BC;" d="M88,168h80v32H88V168z"/>
</g>
<g>
	<path style="fill:#80CAEC;" d="M104,224h24v16h-24V224z"/>
	<path style="fill:#80CAEC;" d="M104,256h24v16h-24V256z"/>
	<path style="fill:#80CAEC;" d="M104,288h24v16h-24V288z"/>
</g>
<g>
	<path style="fill:#29ABE2;" d="M152,408h16v16h-16V408z"/>
	<path style="fill:#29ABE2;" d="M29.536,424H136v-16H43.08L29.536,424z"/>
</g>
<g>
	<path style="fill:#FBB03B;" d="M352,360h32v16h-32V360z"/>
	<path style="fill:#FBB03B;" d="M352,328h32v16h-32V328z"/>
	<path style="fill:#FBB03B;" d="M352,424h32v16h-32V424z"/>
	<path style="fill:#FBB03B;" d="M352,392h32v16h-32V392z"/>
	<path style="fill:#FBB03B;" d="M320,360h16v104h-16V360z"/>
	<path style="fill:#FBB03B;" d="M320,328h16v16h-16V328z"/>
</g>
<g>
</g>
<g>
</g>
<g>
</g>
<g>
</g>
<g>
</g>
<g>
</g>
<g>
</g>
<g>
</g>
<g>
</g>
<g>
</g>
<g>
</g>
<g>
</g>
<g>
</g>
<g>
</g>
<g>
</g>
</svg>
